<svg xmlns="http://www.w3.org/2000/svg" xmlns:xlink="http://www.w3.org/1999/xlink" width="36px" height="36px" viewBox="0 0 36 36" version="1.1">
    <title>Icon / Data Availability / Non-integrated / Not Added</title>
    <g id="Icon-/-Data-Availability-/-Non-integrated-/-Not-Added" stroke="none" stroke-width="1" fill="none" fill-rule="evenodd">
        <path d="M18,0 C27.9411255,0 36,8.0588745 36,18 C36,27.9411255 27.9411255,36 18,36 C8.0588745,36 0,27.9411255 0,18 C0,8.0588745 8.0588745,0 18,0 Z M18,3 C9.71572875,3 3,9.71572875 3,18 C3,26.2842712 9.71572875,33 18,33 C26.2842712,33 33,26.2842712 33,18 C33,9.71572875 26.2842712,3 18,3 Z" id="Oval-Copy-2" fill="#939598" fill-rule="nonzero"/>
        <polygon id="Line-2" fill="#939598" fill-rule="nonzero" points="24.0780282 9.47670783 26.1993485 11.5980282 19.959 17.838 26.1993485 24.0780282 24.0780282 26.1993485 17.838 19.959 11.5980282 26.1993485 9.47670783 24.0780282 15.717 17.838 9.47670783 11.5980282 11.5980282 9.47670783 17.838 15.717"/>
    </g>
</svg>