<svg xmlns="http://www.w3.org/2000/svg" xmlns:xlink="http://www.w3.org/1999/xlink" width="36px" height="36px" viewBox="0 0 36 36" version="1.1">
    <title>Icon / Data Availability / Non-integrated / Restricted</title>
    <g id="Icon-/-Data-Availability-/-Non-integrated-/-Restricted" stroke="none" stroke-width="1" fill="none" fill-rule="evenodd">
        <path d="M18,0 C27.9411255,0 36,8.0588745 36,18 C36,27.9411255 27.9411255,36 18,36 C8.0588745,36 0,27.9411255 0,18 C0,8.0588745 8.0588745,0 18,0 Z M18,3 C9.71572875,3 3,9.71572875 3,18 C3,26.2842712 9.71572875,33 18,33 C26.2842712,33 33,26.2842712 33,18 C33,9.71572875 26.2842712,3 18,3 Z" id="Oval" fill="#939598" fill-rule="nonzero"/>
        <polygon id="Path-Copy" fill="#939598" points="8.67687127 17.8471526 15.7339748 24.9042561 27.4595859 13.178645 25.1237803 10.8428393 15.7339748 20.2326448 11.1657977 15.3521819"/>
    </g>
</svg>