<?xml version="1.0" encoding="utf-8"?>
<!-- Generator: Adobe Illustrator 18.1.1, SVG Export Plug-In . SVG Version: 6.00 Build 0)  -->
<svg version="1.1" xmlns="http://www.w3.org/2000/svg" xmlns:xlink="http://www.w3.org/1999/xlink" x="0px" y="0px"
	 viewBox="0 0 128 128" enable-background="new 0 0 128 128" xml:space="preserve">
<symbol  id="Deleted_Symbol_2_1_" viewBox="-6 -5.3 12 12">
	<g>
		<path fill="#FFFFFF" d="M-4-4.8c-0.8,0-1.5,0.7-1.5,1.5v8c0,0.8,0.7,1.5,1.5,1.5h8c0.8,0,1.5-0.7,1.5-1.5v-8
			c0-0.8-0.7-1.5-1.5-1.5H-4z"/>
		<path fill="#CFD1D2" d="M4,5.7c0.6,0,1-0.4,1-1v-8c0-0.6-0.4-1-1-1h-8c-0.6,0-1,0.4-1,1v8c0,0.6,0.4,1,1,1H4 M4,6.7h-8
			c-1.1,0-2-0.9-2-2v-8c0-1.1,0.9-2,2-2h8c1.1,0,2,0.9,2,2v8C6,5.8,5.1,6.7,4,6.7L4,6.7z"/>
	</g>
</symbol>
<g id="Layer_1">
	<g id="Checkbox_-_checked">
		<g id="Deleted_Symbol_2">
		</g>
	</g>
	<g id="radio_button_Selected_2">
	</g>
	<g id="small_help">
	</g>
	<g>
		<defs>
			<rect id="SVGID_47_" width="128" height="128"/>
		</defs>
		<clipPath id="SVGID_2_">
			<use xlink:href="#SVGID_47_"  overflow="visible"/>
		</clipPath>
		<g id="XMLID_1_" clip-path="url(#SVGID_2_)">
			<g>
				<g>
					<g>
						<polygon fill="#9B0D96" points="84.4,55.1 64,79.9 43.6,55.1 						"/>
					</g>
				</g>
			</g>
		</g>
		<g clip-path="url(#SVGID_2_)">
			<path fill="#E6E6E6" d="M64,119.5C33.4,119.5,8.5,94.6,8.5,64S33.4,8.5,64,8.5s55.5,24.9,55.5,55.5S94.6,119.5,64,119.5z
				 M64,12.6c-28.4,0-51.4,23.1-51.4,51.4s23.1,51.4,51.4,51.4s51.4-23.1,51.4-51.4S92.4,12.6,64,12.6z"/>
		</g>
	</g>
	<g id="plot_icon">
	</g>
</g>
<g id="Layer_7">
</g>
</svg>
