<?xml version="1.0" encoding="utf-8"?>
<!-- Generator: Adobe Illustrator 19.1.0, SVG Export Plug-In . SVG Version: 6.00 Build 0)  -->
<svg version="1.1" id="Layer_1" xmlns="http://www.w3.org/2000/svg" xmlns:xlink="http://www.w3.org/1999/xlink" x="0px" y="0px"
	 viewBox="-19 21 128 128" style="enable-background:new -19 21 128 128;" xml:space="preserve">
<style type="text/css">
	.st0{clip-path:url(#SVGID_4_);fill:#303030;}
	.st1{clip-path:url(#SVGID_4_);}
	.st2{fill:#FB2E5C;}
</style>
<g id="Layer_1_1_">
	<g id="Checkbox_-_checked">
		<g id="Deleted_Symbol_2">
		</g>
	</g>
	<g id="radio_button_Selected_2">
	</g>
	<g id="small_help">
	</g>
	<g id="plot_icon">
	</g>
	<g>
		<g>
			<defs>
				<rect id="SVGID_1_" x="-19" y="21" width="128" height="128"/>
			</defs>
			<clipPath id="SVGID_2_">
				<use xlink:href="#SVGID_1_"  style="overflow:visible;"/>
			</clipPath>
		</g>
		<g>
			<defs>
				<rect id="SVGID_3_" x="-19" y="21" width="128" height="128"/>
			</defs>
			<clipPath id="SVGID_4_">
				<use xlink:href="#SVGID_3_"  style="overflow:visible;"/>
			</clipPath>
			<polygon class="st0" points="58.9,78.1 45,98.9 31.1,78.1 			"/>
			<g class="st1">
				<path class="st2" d="M45,36.4c26.8,0,48.5,21.8,48.5,48.6S71.8,133.6,45,133.6S-3.5,111.8-3.5,85S18.2,36.4,45,36.4 M45,29.5
					c-30.7,0-55.5,24.8-55.5,55.5s24.8,55.5,55.5,55.5c30.7,0,55.5-24.8,55.5-55.5S75.7,29.5,45,29.5L45,29.5z"/>
			</g>
		</g>
	</g>
</g>
<g id="Layer_7">
</g>
</svg>
