<?xml version="1.0" encoding="utf-8"?>
<!-- Generator: Adobe Illustrator 17.1.0, SVG Export Plug-In . SVG Version: 6.00 Build 0)  -->
<!DOCTYPE svg PUBLIC "-//W3C//DTD SVG 1.1//EN" "http://www.w3.org/Graphics/SVG/1.1/DTD/svg11.dtd">
<svg version="1.1" id="Layer_1" xmlns="http://www.w3.org/2000/svg" xmlns:xlink="http://www.w3.org/1999/xlink" x="0px" y="0px"
	 viewBox="0 0 10 10" enable-background="new 0 0 10 10" xml:space="preserve">
<symbol  id="filter_on_2" viewBox="-5.3 -4.9 10.6 9.9">
	<g>
		<path fill="#FFFFFF" d="M4.7,4c0.2,0.2,0.1,0.4-0.2,0.4h-4c-0.3,0-0.7,0-1,0h-4c-0.3,0-0.4-0.2-0.2-0.4l3-4.1
			c0.2-0.2,0.3-0.6,0.3-0.9v-3c0-0.3,0.2-0.5,0.5-0.5h1.8c0.3,0,0.5,0.2,0.5,0.5v3.1c0,0.3,0.1,0.7,0.3,0.9L4.7,4z"/>
		<path fill="none" stroke="#A43895" stroke-miterlimit="10" d="M4.7,4c0.2,0.2,0.1,0.4-0.2,0.4h-4c-0.3,0-0.7,0-1,0h-4
			c-0.3,0-0.4-0.2-0.2-0.4l3-4.1c0.2-0.2,0.3-0.6,0.3-0.9v-3c0-0.3,0.2-0.5,0.5-0.5h1.8c0.3,0,0.5,0.2,0.5,0.5v3.1
			c0,0.3,0.1,0.7,0.3,0.9L4.7,4z"/>
	</g>
</symbol>
<use xlink:href="#filter_on_2"  width="10.6" height="9.9" x="-5.3" y="-4.9" transform="matrix(1 0 0 -1 5.0004 5.0007)" overflow="visible"/>
</svg>
