<?xml version="1.0" encoding="utf-8"?>
<!-- Generator: Adobe Illustrator 19.1.0, SVG Export Plug-In . SVG Version: 6.00 Build 0)  -->
<svg version="1.1" id="Layer_1" xmlns="http://www.w3.org/2000/svg" xmlns:xlink="http://www.w3.org/1999/xlink" x="0px" y="0px"
	 viewBox="41 -42 112 112" style="enable-background:new 41 -42 112 112;" xml:space="preserve">
<style type="text/css">
	.st0{clip-path:url(#SVGID_2_);}
	.st1{fill:#303030;}
	.st2{opacity:0.75;}
	.st3{fill:#D2D2D2;}
</style>
<g id="Layer_1_1_">
	<g>
		<g>
			<defs>
				<rect id="SVGID_1_" x="41" y="-42" width="112" height="112"/>
			</defs>
			<clipPath id="SVGID_2_">
				<use xlink:href="#SVGID_1_"  style="overflow:visible;"/>
			</clipPath>
			<g class="st0">
				<g>
					<polygon class="st1" points="100,18 91,12 100,6 					"/>
					<g class="st2">
						<path class="st3" d="M109-2c1.1,0,2,0.9,2,2l0,24c0,1.1-0.9,2-2,2l-24,0c-1.1,0-2-0.9-2-2l0-24c0-1.1,0.9-2,2-2L109-2 M109-4
							L85-4c-2.2,0-4,1.8-4,4l0,24c0,2.2,1.8,4,4,4l24,0c2.2,0,4-1.8,4-4l0-24C113-2.2,111.2-4,109-4L109-4z"/>
					</g>
				</g>
			</g>
		</g>
	</g>
	<g id="Checkbox_-_checked">
		<g id="Deleted_Symbol_2">
		</g>
	</g>
	<g id="radio_button_Selected_2">
	</g>
	<g id="small_help">
	</g>
	<g id="plot_icon">
	</g>
</g>
<g id="Layer_7">
</g>
</svg>
