<?xml version="1.0" encoding="utf-8"?>
<!-- Generator: Adobe Illustrator 18.1.1, SVG Export Plug-In . SVG Version: 6.00 Build 0)  -->
<svg version="1.1" xmlns="http://www.w3.org/2000/svg" xmlns:xlink="http://www.w3.org/1999/xlink" x="0px" y="0px"
	 viewBox="0 0 128 128" enable-background="new 0 0 128 128" xml:space="preserve">
<symbol  id="Deleted_Symbol_2_1_" viewBox="-6 -5.3 12 12">
	<g>
		<path fill="#FFFFFF" d="M-4-4.8c-0.8,0-1.5,0.7-1.5,1.5v8c0,0.8,0.7,1.5,1.5,1.5h8c0.8,0,1.5-0.7,1.5-1.5v-8
			c0-0.8-0.7-1.5-1.5-1.5H-4z"/>
		<path fill="#CFD1D2" d="M4,5.7c0.6,0,1-0.4,1-1v-8c0-0.6-0.4-1-1-1h-8c-0.6,0-1,0.4-1,1v8c0,0.6,0.4,1,1,1H4 M4,6.7h-8
			c-1.1,0-2-0.9-2-2v-8c0-1.1,0.9-2,2-2h8c1.1,0,2,0.9,2,2v8C6,5.8,5.1,6.7,4,6.7L4,6.7z"/>
	</g>
</symbol>
<symbol  id="Non_Vaccination_Icon" viewBox="-2.9 -2.9 5.7 5.7">
	<polygon fill="#F5A73A" points="2.9,-2.9 -2.9,-2.9 -2.9,2.9 2.9,2.9 	"/>
</symbol>
<g id="Layer_1">
	<g id="Checkbox_-_checked">
		<g id="Deleted_Symbol_2">
		</g>
	</g>
	<g id="radio_button_Selected_2">
	</g>
	<g id="small_help">
	</g>
	<g>
		<defs>
			<rect id="SVGID_55_" width="128" height="128"/>
		</defs>
		<clipPath id="SVGID_2_">
			<use xlink:href="#SVGID_55_"  overflow="visible"/>
		</clipPath>
		<g transform="matrix(1 0 0 1 3.814697e-06 0)" clip-path="url(#SVGID_2_)">
			
				<use xlink:href="#Non_Vaccination_Icon"  width="5.7" height="5.7" id="XMLID_39_" x="-2.9" y="-2.9" transform="matrix(15.7676 0 0 -15.7676 63.9993 64.0134)" overflow="visible"/>
		</g>
	</g>
	<g id="plot_icon">
	</g>
</g>
<g id="Layer_7">
</g>
</svg>
