<?xml version="1.0" encoding="utf-8"?>
<!-- Generator: Adobe Illustrator 18.1.1, SVG Export Plug-In . SVG Version: 6.00 Build 0)  -->
<svg version="1.1" xmlns="http://www.w3.org/2000/svg" xmlns:xlink="http://www.w3.org/1999/xlink" x="0px" y="0px"
	 viewBox="0 0 128 128" enable-background="new 0 0 128 128" xml:space="preserve">
<symbol  id="Deleted_Symbol_2_1_" viewBox="-6 -5.3 12 12">
	<g>
		<path fill="#FFFFFF" d="M-4-4.8c-0.8,0-1.5,0.7-1.5,1.5v8c0,0.8,0.7,1.5,1.5,1.5h8c0.8,0,1.5-0.7,1.5-1.5v-8
			c0-0.8-0.7-1.5-1.5-1.5H-4z"/>
		<path fill="#CFD1D2" d="M4,5.7c0.6,0,1-0.4,1-1v-8c0-0.6-0.4-1-1-1h-8c-0.6,0-1,0.4-1,1v8c0,0.6,0.4,1,1,1H4 M4,6.7h-8
			c-1.1,0-2-0.9-2-2v-8c0-1.1,0.9-2,2-2h8c1.1,0,2,0.9,2,2v8C6,5.8,5.1,6.7,4,6.7L4,6.7z"/>
	</g>
</symbol>
<symbol  id="Vaccine_Icon_3" viewBox="-6.2 -6.6 13.4 13.4">
	<polygon fill="#F5A73A" points="3.7,3.3 3.7,3.3 5.8,4 6.5,3.3 7.3,4 4.4,6.9 3.7,6.1 4.4,5.4 	"/>
	<polygon fill="#F5A73A" points="0.3,4.1 1,4.8 1.7,4.1 4.5,1.3 5.2,0.6 4.5,-0.1 3.8,0.6 -1.1,-4.4 -3.7,-4.8 -6.2,-6.6 -4.4,-4.1 
		-4,-1.5 1,3.4 	"/>
</symbol>
<g id="Layer_1">
	<g id="Checkbox_-_checked">
		<g id="Deleted_Symbol_2">
		</g>
	</g>
	<g id="radio_button_Selected_2">
	</g>
	<g id="small_help">
	</g>
	<g>
		<defs>
			<rect id="SVGID_53_" width="128" height="128"/>
		</defs>
		<clipPath id="SVGID_2_">
			<use xlink:href="#SVGID_53_"  overflow="visible"/>
		</clipPath>
		<g clip-path="url(#SVGID_2_)">
			
				<use xlink:href="#Vaccine_Icon_3"  width="13.4" height="13.4" id="XMLID_3_" x="-6.2" y="-6.6" transform="matrix(8.3364 0 0 -8.3364 59.5105 65.1159)" overflow="visible"/>
		</g>
	</g>
	<g id="plot_icon">
	</g>
</g>
<g id="Layer_7">
</g>
</svg>
