<?xml version="1.0" encoding="utf-8"?>
<!-- Generator: Adobe Illustrator 17.1.0, SVG Export Plug-In . SVG Version: 6.00 Build 0)  -->
<!DOCTYPE svg PUBLIC "-//W3C//DTD SVG 1.1//EN" "http://www.w3.org/Graphics/SVG/1.1/DTD/svg11.dtd">
<svg version="1.1" id="Layer_1" xmlns="http://www.w3.org/2000/svg" xmlns:xlink="http://www.w3.org/1999/xlink" x="0px" y="0px"
	 viewBox="0 0 10 10" enable-background="new 0 0 10 10" xml:space="preserve">
<symbol  id="filter_on" viewBox="-5.3 -4.9 10.6 9.7">
	<g>
		<path fill="#A43895" d="M5.2,4.5C5.4,4.7,5.3,4.9,5,4.9H0.5c-0.3,0-0.7,0-1,0H-5c-0.3,0-0.4-0.2-0.2-0.4l3.4-4.5
			C-1.6-0.3-1.5-0.7-1.5-1v-3.4c0-0.3,0.2-0.5,0.5-0.5h2c0.3,0,0.5,0.2,0.5,0.5v3.5c0,0.3,0.1,0.7,0.3,0.9L5.2,4.5z"/>
	</g>
</symbol>
<use xlink:href="#filter_on"  width="10.6" height="9.7" id="XMLID_116_" x="-5.3" y="-4.9" transform="matrix(1 0 0 -1 4.9998 4.9999)" overflow="visible"/>
</svg>
