<?xml version="1.0" encoding="utf-8"?>
<!-- Generator: Adobe Illustrator 18.1.1, SVG Export Plug-In . SVG Version: 6.00 Build 0)  -->
<svg version="1.1" xmlns="http://www.w3.org/2000/svg" xmlns:xlink="http://www.w3.org/1999/xlink" x="0px" y="0px"
	 viewBox="0 0 128 128" enable-background="new 0 0 128 128" xml:space="preserve">
<symbol  id="Deleted_Symbol_2_1_" viewBox="-6 -5.3 12 12">
	<g>
		<path fill="#FFFFFF" d="M-4-4.8c-0.8,0-1.5,0.7-1.5,1.5v8c0,0.8,0.7,1.5,1.5,1.5h8c0.8,0,1.5-0.7,1.5-1.5v-8
			c0-0.8-0.7-1.5-1.5-1.5H-4z"/>
		<path fill="#CFD1D2" d="M4,5.7c0.6,0,1-0.4,1-1v-8c0-0.6-0.4-1-1-1h-8c-0.6,0-1,0.4-1,1v8c0,0.6,0.4,1,1,1H4 M4,6.7h-8
			c-1.1,0-2-0.9-2-2v-8c0-1.1,0.9-2,2-2h8c1.1,0,2,0.9,2,2v8C6,5.8,5.1,6.7,4,6.7L4,6.7z"/>
	</g>
</symbol>
<g id="Layer_1">
	<g id="Checkbox_-_checked">
		<g id="Deleted_Symbol_2">
		</g>
	</g>
	<g id="radio_button_Selected_2">
	</g>
	<g id="small_help">
	</g>
	<g id="plot_icon">
	</g>
	<g>
		<defs>
			<rect id="SVGID_95_" x="0" width="128" height="128"/>
		</defs>
		<clipPath id="SVGID_2_">
			<use xlink:href="#SVGID_95_"  overflow="visible"/>
		</clipPath>
		<line clip-path="url(#SVGID_2_)" fill="none" x1="0" y1="0" x2="128" y2="128"/>
		<line clip-path="url(#SVGID_2_)" fill="none" x1="0" y1="128" x2="128" y2="0"/>
		<g clip-path="url(#SVGID_2_)">
			<circle fill="#F0F0F0" cx="64" cy="64" r="56"/>
			<path fill="#333333" d="M65.9,64l14.2-14.2c0.5-0.5,0.5-1.4,0-1.9c-0.5-0.5-1.4-0.5-1.9,0L64,62.1L49.8,47.9
				c-0.5-0.5-1.4-0.5-1.9,0c-0.5,0.5-0.5,1.4,0,1.9L62.1,64L47.9,78.2c-0.5,0.5-0.5,1.4,0,1.9c0.3,0.3,0.6,0.4,1,0.4
				c0.4,0,0.7-0.1,1-0.4L64,65.9l14.2,14.2c0.3,0.3,0.6,0.4,1,0.4c0.4,0,0.7-0.1,1-0.4c0.5-0.5,0.5-1.4,0-1.9L65.9,64z"/>
		</g>
	</g>
</g>
<g id="Layer_7">
</g>
</svg>
